<svg xmlns="http://www.w3.org/2000/svg" version="1.1" xmlns:xlink="http://www.w3.org/1999/xlink" width="27" height="15"><svg xmlns="http://www.w3.org/2000/svg" version="1.1" xmlns:xlink="http://www.w3.org/1999/xlink" width="27" height="15"><svg width="27" height="15" viewBox="0 0 27 15" fill="none" xmlns="http://www.w3.org/2000/svg">
<path d="M10.6485 13.3641C9.7098 13.3641 8.85647 13.3481 8.08847 13.3161C7.33113 13.2841 6.5898 13.2468 5.86447 13.2041C5.13913 13.1721 4.37646 13.1561 3.57646 13.1561C2.77646 13.1561 1.87513 13.1881 0.872465 13.2521C0.787132 13.0281 0.717798 12.7508 0.664465 12.4201C0.621798 12.0788 0.595132 11.7214 0.584465 11.3481C0.573798 10.9748 0.584465 10.6228 0.616465 10.2921C0.648465 9.95076 0.701798 9.66809 0.776465 9.44409C0.947132 9.38009 1.11246 9.27343 1.27246 9.12409C1.43246 8.96409 1.5658 8.71343 1.67246 8.37209C1.77913 8.02009 1.83246 7.52943 1.83246 6.90009C1.83246 6.21743 1.76846 5.70543 1.64046 5.36409C1.52313 5.01209 1.37913 4.77743 1.20846 4.66009C1.04846 4.53209 0.904465 4.46809 0.776465 4.46809C0.648465 4.14809 0.563132 3.74809 0.520465 3.26809C0.488465 2.78809 0.493798 2.30276 0.536465 1.81209C0.589798 1.31076 0.691132 0.889426 0.840465 0.548093C1.73646 0.59076 2.5738 0.617426 3.35246 0.628093C4.1418 0.628093 4.90447 0.617426 5.64047 0.596093C6.38713 0.57476 7.13913 0.553427 7.89647 0.532093C8.66447 0.51076 9.48047 0.500093 10.3445 0.500093C11.2618 0.500093 12.0991 0.54276 12.8565 0.628093C13.6138 0.70276 14.2698 0.86276 14.8245 1.10809C15.3898 1.35343 15.8218 1.71609 16.1205 2.19609C16.4298 2.67609 16.5845 3.31609 16.5845 4.11609C16.5845 4.59609 16.4778 5.04943 16.2645 5.47609C16.0511 5.90276 15.7631 6.29743 15.4005 6.66009C16.0298 7.03343 16.4565 7.45476 16.6805 7.92409C16.9151 8.38276 17.0325 8.87876 17.0325 9.41209C17.0325 10.0201 16.9365 10.5694 16.7445 11.0601C16.5525 11.5401 16.2165 11.9561 15.7365 12.3081C15.2671 12.6494 14.6165 12.9108 13.7845 13.0921C12.9631 13.2734 11.9178 13.3641 10.6485 13.3641ZM8.42447 5.79609H9.60847V4.93209H8.42447V5.79609ZM8.42447 8.80409H9.73647V7.89209H8.42447V8.80409Z" fill="white"></path>
<path d="M22.6297 13.5561C20.2617 13.5561 19.0777 12.5588 19.0777 10.5641C19.0777 9.60409 19.3817 8.87343 19.9897 8.37209C20.5977 7.86009 21.4937 7.60409 22.6777 7.60409C25.099 7.60409 26.3097 8.59076 26.3097 10.5641C26.3097 11.5348 26.0004 12.2761 25.3817 12.7881C24.763 13.3001 23.8457 13.5561 22.6297 13.5561Z" fill="#C6FF00"></path>
<path d="M8.08847 13.3161L8.06736 13.8156L8.06765 13.8157L8.08847 13.3161ZM5.86447 13.2041L5.89383 12.7049L5.8865 12.7046L5.86447 13.2041ZM0.872465 13.2521L0.405221 13.4301L0.536447 13.7746L0.904315 13.7511L0.872465 13.2521ZM0.664465 12.4201L0.168326 12.4821L0.169429 12.4909L0.170844 12.4997L0.664465 12.4201ZM0.616465 10.2921L1.11414 10.3403L1.11428 10.3388L0.616465 10.2921ZM0.776465 9.44409L0.600903 8.97593L0.377555 9.05968L0.302123 9.28598L0.776465 9.44409ZM1.27246 9.12409L1.61362 9.48962L1.61992 9.48374L1.62602 9.47765L1.27246 9.12409ZM1.67246 8.37209L2.14972 8.52124L2.15098 8.5171L1.67246 8.37209ZM1.64046 5.36409L1.16612 5.52221L1.16905 5.53099L1.1723 5.53966L1.64046 5.36409ZM1.20846 4.66009L0.896117 5.05053L0.910268 5.06185L0.925201 5.07211L1.20846 4.66009ZM0.776465 4.46809L0.312227 4.65379L0.437948 4.96809H0.776465V4.46809ZM0.520465 3.26809L0.0214505 3.30136L0.0224285 3.31236L0.520465 3.26809ZM0.536465 1.81209L0.0391783 1.75919L0.0383446 1.76878L0.536465 1.81209ZM0.840465 0.548093L0.864247 0.0486584L0.520374 0.0322838L0.382386 0.347684L0.840465 0.548093ZM3.35246 0.628093L3.34562 1.12809H3.35246V0.628093ZM5.64047 0.596093L5.62619 0.0962973L5.62598 0.096303L5.64047 0.596093ZM7.89647 0.532093L7.88258 0.0322857L7.88239 0.0322914L7.89647 0.532093ZM12.8565 0.628093L12.8005 1.125L12.8074 1.12568L12.8565 0.628093ZM14.8245 1.10809L14.6222 1.56537L14.6254 1.56677L14.8245 1.10809ZM16.1205 2.19609L15.6959 2.46028L15.7002 2.46694L16.1205 2.19609ZM15.4005 6.66009L15.0469 6.30654L14.5917 6.7617L15.1454 7.09012L15.4005 6.66009ZM16.6805 7.92409L16.2291 8.13954L16.2353 8.15183L16.6805 7.92409ZM16.7445 11.0601L17.2087 11.2458L17.2101 11.2423L16.7445 11.0601ZM15.7365 12.3081L16.0306 12.7125L16.0321 12.7113L15.7365 12.3081ZM13.7845 13.0921L13.678 12.6036L13.6767 12.6039L13.7845 13.0921ZM8.42447 5.79609H7.92447V6.29609H8.42447V5.79609ZM9.60847 5.79609V6.29609H10.1085V5.79609H9.60847ZM9.60847 4.93209H10.1085V4.43209H9.60847V4.93209ZM8.42447 4.93209V4.43209H7.92447V4.93209H8.42447ZM8.42447 8.80409H7.92447V9.30409H8.42447V8.80409ZM9.73647 8.80409V9.30409H10.2365V8.80409H9.73647ZM9.73647 7.89209H10.2365V7.39209H9.73647V7.89209ZM8.42447 7.89209V7.39209H7.92447V7.89209H8.42447ZM10.6485 13.3641V12.8641C9.71529 12.8641 8.86903 12.8482 8.10928 12.8165L8.08847 13.3161L8.06765 13.8157C8.8439 13.848 9.70431 13.8641 10.6485 13.8641V13.3641ZM8.08847 13.3161L8.10957 12.8165C7.35487 12.7847 6.61629 12.7475 5.89383 12.705L5.86447 13.2041L5.8351 13.7032C6.5633 13.7461 7.30739 13.7835 8.06736 13.8156L8.08847 13.3161ZM5.86447 13.2041L5.8865 12.7046C5.15313 12.6722 4.38308 12.6561 3.57646 12.6561V13.1561V13.6561C4.36985 13.6561 5.12513 13.672 5.84243 13.7036L5.86447 13.2041ZM3.57646 13.1561V12.6561C2.76356 12.6561 1.85134 12.6886 0.840615 12.7531L0.872465 13.2521L0.904315 13.7511C1.89892 13.6876 2.78937 13.6561 3.57646 13.6561V13.1561ZM0.872465 13.2521L1.33971 13.0741C1.27021 12.8917 1.20796 12.6497 1.15809 12.3405L0.664465 12.4201L0.170844 12.4997C0.227637 12.8518 0.304057 13.1645 0.405221 13.4301L0.872465 13.2521ZM0.664465 12.4201L1.1606 12.3581C1.12008 12.0339 1.09451 11.6925 1.08426 11.3338L0.584465 11.3481L0.0846688 11.3624C0.0957532 11.7503 0.123519 12.1237 0.168326 12.4821L0.664465 12.4201ZM0.584465 11.3481L1.08426 11.3338C1.07412 10.9788 1.08438 10.6478 1.11414 10.3403L0.616465 10.2921L0.11879 10.2439C0.0845532 10.5977 0.0734787 10.9707 0.0846688 11.3624L0.584465 11.3481ZM0.616465 10.2921L1.11428 10.3388C1.14417 10.0199 1.19225 9.77787 1.25081 9.60221L0.776465 9.44409L0.302123 9.28598C0.211343 9.55832 0.152758 9.88158 0.118648 10.2454L0.616465 10.2921ZM0.776465 9.44409L0.952026 9.91226C1.19509 9.82111 1.4151 9.67491 1.61362 9.48962L1.27246 9.12409L0.931306 8.75857C0.809829 8.87194 0.699172 8.93908 0.600903 8.97593L0.776465 9.44409ZM1.27246 9.12409L1.62602 9.47765C1.86697 9.23669 2.03152 8.89942 2.1497 8.52123L1.67246 8.37209L1.19522 8.22296C1.10007 8.52744 0.997957 8.69149 0.918912 8.77054L1.27246 9.12409ZM1.67246 8.37209L2.15098 8.5171C2.27849 8.09632 2.33246 7.54895 2.33246 6.90009H1.83246H1.33246C1.33246 7.5099 1.27978 7.94387 1.19395 8.22709L1.67246 8.37209ZM1.83246 6.90009H2.33246C2.33246 6.20039 2.26878 5.6156 2.10863 5.18853L1.64046 5.36409L1.1723 5.53966C1.26815 5.79525 1.33246 6.23446 1.33246 6.90009H1.83246ZM1.64046 5.36409L2.11481 5.20598C1.9871 4.82285 1.79906 4.45936 1.49173 4.24807L1.20846 4.66009L0.925201 5.07211C0.9592 5.09549 1.05917 5.20134 1.16612 5.52221L1.64046 5.36409ZM1.20846 4.66009L1.52081 4.26966C1.32185 4.11049 1.06848 3.96809 0.776465 3.96809V4.46809V4.96809C0.756304 4.96809 0.75493 4.96301 0.777395 4.973C0.800609 4.98332 0.840135 5.00574 0.896117 5.05053L1.20846 4.66009ZM0.776465 4.46809L1.2407 4.2824C1.1364 4.02164 1.05843 3.67302 1.0185 3.22382L0.520465 3.26809L0.0224285 3.31236C0.0678333 3.82317 0.160531 4.27455 0.312227 4.65379L0.776465 4.46809ZM0.520465 3.26809L1.01936 3.23483C0.989098 2.78094 0.99408 2.32121 1.03459 1.85541L0.536465 1.81209L0.0383446 1.76878C-0.00648403 2.28431 -0.0121681 2.79525 0.0215723 3.30135L0.520465 3.26809ZM0.536465 1.81209L1.03366 1.86499C1.08336 1.39783 1.17552 1.02971 1.29854 0.748502L0.840465 0.548093L0.382386 0.347684C0.206747 0.749144 0.0962393 1.22369 0.0392704 1.7592L0.536465 1.81209ZM0.840465 0.548093L0.816682 1.04753C1.7175 1.09042 2.56053 1.11729 3.34562 1.12805L3.35246 0.628093L3.35931 0.128139C2.58706 0.117561 1.75543 0.0910959 0.864247 0.0486584L0.840465 0.548093ZM3.35246 0.628093V1.12809C4.14629 1.12809 4.91379 1.11737 5.65495 1.09588L5.64047 0.596093L5.62598 0.096303C4.89514 0.117487 4.13731 0.128093 3.35246 0.128093V0.628093ZM5.64047 0.596093L5.65475 1.09589C6.40134 1.07456 7.15328 1.05323 7.91054 1.03189L7.89647 0.532093L7.88239 0.0322914C7.12499 0.053627 6.37292 0.0749617 5.62619 0.0962973L5.64047 0.596093ZM7.89647 0.532093L7.91035 1.0319C8.6732 1.01071 9.48454 1.00009 10.3445 1.00009V0.500093V9.34601e-05C9.4764 9.34601e-05 8.65574 0.0108099 7.88258 0.0322857L7.89647 0.532093ZM10.3445 0.500093V1.00009C11.2467 1.00009 12.065 1.04208 12.8005 1.12495L12.8565 0.628093L12.9124 0.131237C12.1332 0.0434399 11.2769 9.34601e-05 10.3445 9.34601e-05V0.500093ZM12.8565 0.628093L12.8074 1.12568C13.5247 1.1964 14.1267 1.34619 14.6222 1.56536L14.8245 1.10809L15.0267 0.650826C14.4129 0.379327 13.7029 0.209118 12.9055 0.130506L12.8565 0.628093ZM14.8245 1.10809L14.6254 1.56677C15.1064 1.77548 15.4558 2.07428 15.6959 2.46024L16.1205 2.19609L16.545 1.93194C16.1878 1.3579 15.6732 0.931369 15.0235 0.649421L14.8245 1.10809ZM16.1205 2.19609L15.7002 2.46694C15.9405 2.83991 16.0845 3.3752 16.0845 4.11609H16.5845H17.0845C17.0845 3.25699 16.9191 2.51228 16.5408 1.92524L16.1205 2.19609ZM16.5845 4.11609H16.0845C16.0845 4.51897 15.9956 4.8957 15.8173 5.25249L16.2645 5.47609L16.7117 5.6997C16.9599 5.20316 17.0845 4.67321 17.0845 4.11609H16.5845ZM16.2645 5.47609L15.8173 5.25249C15.6297 5.6276 15.3744 5.97902 15.0469 6.30654L15.4005 6.66009L15.754 7.01365C16.1518 6.61584 16.4726 6.17792 16.7117 5.6997L16.2645 5.47609ZM15.4005 6.66009L15.1454 7.09012C15.7229 7.4327 16.062 7.78908 16.2292 8.13946L16.6805 7.92409L17.1317 7.70873C16.8509 7.12044 16.3367 6.63415 15.6556 6.23007L15.4005 6.66009ZM16.6805 7.92409L16.2353 8.15183C16.4326 8.53748 16.5325 8.95507 16.5325 9.41209H17.0325H17.5325C17.5325 8.80245 17.3976 8.22804 17.1256 7.69636L16.6805 7.92409ZM17.0325 9.41209H16.5325C16.5325 9.96722 16.4449 10.4535 16.2788 10.8779L16.7445 11.0601L17.2101 11.2423C17.428 10.6854 17.5325 10.073 17.5325 9.41209H17.0325ZM16.7445 11.0601L16.2802 10.8744C16.128 11.255 15.857 11.5997 15.4408 11.9049L15.7365 12.3081L16.0321 12.7113C16.5759 12.3125 16.977 11.8251 17.2087 11.2458L16.7445 11.0601ZM15.7365 12.3081L15.4424 11.9037C15.0489 12.1899 14.4713 12.4307 13.678 12.6036L13.7845 13.0921L13.8909 13.5806C14.7617 13.3909 15.4854 13.109 16.0306 12.7125L15.7365 12.3081ZM13.7845 13.0921L13.6767 12.6039C12.9038 12.7745 11.8979 12.8641 10.6485 12.8641V13.3641V13.8641C11.9377 13.8641 13.0225 13.7724 13.8923 13.5803L13.7845 13.0921ZM8.42447 5.79609V6.29609H9.60847V5.79609V5.29609H8.42447V5.79609ZM9.60847 5.79609H10.1085V4.93209H9.60847H9.10847V5.79609H9.60847ZM9.60847 4.93209V4.43209H8.42447V4.93209V5.43209H9.60847V4.93209ZM8.42447 4.93209H7.92447V5.79609H8.42447H8.92447V4.93209H8.42447ZM8.42447 8.80409V9.30409H9.73647V8.80409V8.30409H8.42447V8.80409ZM9.73647 8.80409H10.2365V7.89209H9.73647H9.23647V8.80409H9.73647ZM9.73647 7.89209V7.39209H8.42447V7.89209V8.39209H9.73647V7.89209ZM8.42447 7.89209H7.92447V8.80409H8.42447H8.92447V7.89209H8.42447ZM19.9897 8.37209L20.3078 8.75788L20.3118 8.75455L19.9897 8.37209ZM25.3817 12.7881L25.7005 13.1733V13.1733L25.3817 12.7881ZM22.6297 13.5561V13.0561C21.5039 13.0561 20.7526 12.8172 20.2878 12.4257C19.8395 12.048 19.5777 11.4597 19.5777 10.5641H19.0777H18.5777C18.5777 11.6631 18.908 12.5709 19.6436 13.1905C20.3628 13.7963 21.3876 14.0561 22.6297 14.0561V13.5561ZM19.0777 10.5641H19.5777C19.5777 9.71756 19.8401 9.14355 20.3078 8.75786L19.9897 8.37209L19.6716 7.98632C18.9234 8.6033 18.5777 9.49063 18.5777 10.5641H19.0777ZM19.9897 8.37209L20.3118 8.75455C20.7946 8.34797 21.5558 8.10409 22.6777 8.10409V7.60409V7.10409C21.4317 7.10409 20.4008 7.37221 19.6676 7.98964L19.9897 8.37209ZM22.6777 7.60409V8.10409C23.8333 8.10409 24.6072 8.3416 25.0858 8.73168C25.5449 9.10581 25.8097 9.6846 25.8097 10.5641H26.3097H26.8097C26.8097 9.47025 26.4692 8.56904 25.7176 7.95651C24.9856 7.35992 23.9435 7.10409 22.6777 7.10409V7.60409ZM26.3097 10.5641H25.8097C25.8097 11.42 25.5428 12.0058 25.0629 12.4029L25.3817 12.7881L25.7005 13.1733C26.458 12.5464 26.8097 11.6495 26.8097 10.5641H26.3097ZM25.3817 12.7881L25.0629 12.4029C24.5699 12.8109 23.7867 13.0561 22.6297 13.0561V13.5561V14.0561C23.9047 14.0561 24.9562 13.7893 25.7005 13.1733L25.3817 12.7881Z" fill="#202124"></path>
</svg></svg><style>@media (prefers-color-scheme: light) { :root { filter: none; } }
@media (prefers-color-scheme: dark) { :root { filter: none; } }
</style></svg>