<svg width="100" height="100" viewBox="0 0 100 100" fill="none" xmlns="http://www.w3.org/2000/svg">
<path d="M85.4163 10.416H14.583L20.833 81.2493L49.9997 89.5827L79.1663 81.2493L85.4163 10.416Z" fill="#0277BD"/>
<path d="M50 16.666V83.1243L73.3333 76.4577L78.5417 16.666H50Z" fill="#039BE5"/>
<path d="M68.9583 27.084H50V35.4173H60.2083L59.5833 43.7507H50V52.084H59.1667L58.5417 61.459L50 64.3756V73.1256L66.4583 67.709L67.9167 43.7507L68.9583 27.084Z" fill="white"/>
<path d="M49.9997 27.084V35.4173H31.458L30.833 27.084H49.9997ZM40.4163 43.7507L40.833 52.084H49.9997V43.7507H40.4163ZM41.2497 56.2506H32.9163L33.5413 67.709L49.9997 73.1256V64.3756L41.458 61.459L41.2497 56.2506Z" fill="#EEEEEE"/>
</svg>
