<svg width="100" height="100" viewBox="0 0 100 100" fill="none" xmlns="http://www.w3.org/2000/svg">
<path d="M83.3334 41.666C84.148 38.0514 83.1417 33.791 78.125 29.166C69.9709 36.5473 72.3021 44.2223 75 47.916C75 47.916 74.6542 49.9993 66.6667 49.9993C58.6792 49.9993 4.1667 49.9993 4.1667 49.9993C4.1667 49.9993 0.347953 83.3327 37.5 83.3327C69.9855 83.3327 79.1104 58.3264 80.8917 51.9243C81.6292 52.0243 82.4563 52.0889 83.3334 52.0827C87.8063 52.0473 93.6042 49.6431 95.8334 40.6577C89.9209 38.6098 86.123 39.5368 83.3334 41.666Z" fill="#03A9F4"/>
<path d="M4.51074 58.334C6.04199 68.2069 12.4649 83.334 37.5003 83.334C62.8857 83.334 74.0066 68.0632 78.5045 58.334H4.51074Z" fill="#0288D1"/>
<path d="M41.2745 83.2042C39.3579 82.5333 30.7079 80.9333 29.1662 68.75C20.3975 72.6312 12.6287 71.6146 9.20996 70.85C13.7141 77.5771 22.0641 83.3333 37.4995 83.3333C38.7975 83.3333 40.0495 83.2833 41.2745 83.2042Z" fill="#81D4FA"/>
<path d="M37.4997 62.5C36.3946 62.5 35.3348 62.939 34.5534 63.7204C33.772 64.5018 33.333 65.5616 33.333 66.6667C33.333 67.7717 33.772 68.8315 34.5534 69.6129C35.3348 70.3943 36.3946 70.8333 37.4997 70.8333C38.6047 70.8333 39.6646 70.3943 40.446 69.6129C41.2274 68.8315 41.6663 67.7717 41.6663 66.6667C41.6663 65.5616 41.2274 64.5018 40.446 63.7204C39.6646 62.939 38.6047 62.5 37.4997 62.5Z" fill="white"/>
<path d="M31.0712 69.9931C31.5378 71.0452 31.1128 72.4139 30.0087 72.7389C23.1316 74.766 17.2045 75.0348 12.7232 75.0348C11.3816 73.7452 10.2357 72.3702 9.27324 70.9452C14.6587 70.9452 23.2524 70.6952 28.3232 68.9327C29.4107 68.5535 30.6045 68.9368 31.0712 69.9931ZM4.16699 56.2493C4.16699 56.2493 8.07324 56.5098 10.417 54.166C14.3232 57.6827 22.792 56.4327 25.0003 54.166C27.2149 57.6827 39.4545 57.0306 41.667 54.166C44.2712 57.1618 55.4691 57.8118 58.3337 54.166C59.3316 57.2098 72.5399 58.0702 75.0003 54.166C77.2107 56.4327 85.5482 58.2035 90.2316 54.166C91.4066 56.641 95.8337 56.2493 95.8337 56.2493V58.3327H4.16699M35.417 66.666C35.417 67.816 36.3503 68.7493 37.5003 68.7493C38.6503 68.7493 39.5837 67.816 39.5837 66.666C39.5837 65.516 38.6503 64.5827 37.5003 64.5827C36.3503 64.5827 35.417 65.516 35.417 66.666Z" fill="#37474F"/>
<path d="M22.9167 49.9993H12.5V39.5827H22.9167V49.9993ZM43.75 39.5827H33.3333V49.9993H43.75V39.5827ZM64.5833 39.5827H54.1667V49.9993H64.5833V39.5827ZM33.3333 29.166H22.9167V39.5827H33.3333V29.166ZM54.1667 29.166H43.75V39.5827H54.1667V29.166Z" fill="#01579B"/>
<path d="M33.3337 50H22.917V39.5833H33.3337V50ZM54.167 39.5833H43.7503V50H54.167V39.5833ZM54.167 18.75H43.7503V29.1667H54.167V18.75ZM43.7503 29.1667H33.3337V39.5833H43.7503V29.1667Z" fill="#0288D1"/>
</svg>
