<svg width="100" height="100" viewBox="0 0 100 100" fill="none" xmlns="http://www.w3.org/2000/svg">
<path d="M54.167 35.4167H37.5003C29.4462 35.4167 22.917 28.8875 22.917 20.8333C22.917 12.7792 29.4462 6.25 37.5003 6.25H54.167V35.4167Z" fill="#E64A19"/>
<path d="M52.0837 64.5827H37.5003C29.4462 64.5827 22.917 58.0535 22.917 49.9993C22.917 41.9452 29.4462 35.416 37.5003 35.416H52.0837V64.5827Z" fill="#7C4DFF"/>
<path d="M37.5003 93.7506C29.4462 93.7506 22.917 87.2215 22.917 79.1673C22.917 71.1132 29.4462 64.584 37.5003 64.584H52.0837V79.1673C52.0837 87.2215 45.5545 93.7506 37.5003 93.7506Z" fill="#66BB6A"/>
<path d="M66.6663 35.4167H52.083V6.25H66.6663C74.7205 6.25 81.2497 12.7792 81.2497 20.8333C81.2497 28.8875 74.7205 35.4167 66.6663 35.4167Z" fill="#FF7043"/>
<path d="M66.6663 64.5827C74.7205 64.5827 81.2497 58.0535 81.2497 49.9993C81.2497 41.9452 74.7205 35.416 66.6663 35.416C58.6122 35.416 52.083 41.9452 52.083 49.9993C52.083 58.0535 58.6122 64.5827 66.6663 64.5827Z" fill="#29B6F6"/>
</svg>
