<svg width="100" height="100" viewBox="0 0 100 100" fill="none" xmlns="http://www.w3.org/2000/svg">
<path d="M87.917 46.041L53.9587 12.0827C52.917 11.041 51.4587 10.416 50.0003 10.416C48.542 10.416 47.0837 11.041 46.042 12.0827L38.7503 19.3743L47.292 27.916C48.1253 27.4993 48.9587 27.291 50.0003 27.291C53.542 27.291 56.2503 29.9993 56.2503 33.541C56.2503 34.5827 56.042 35.416 55.6253 36.2493L63.9587 44.5827C64.792 44.166 65.6253 43.9577 66.667 43.9577C70.2087 43.9577 72.917 46.666 72.917 50.2077C72.917 53.7493 70.2087 56.4577 66.667 56.4577C63.1253 56.4577 60.417 53.7493 60.417 50.2077C60.417 49.166 60.6253 48.3327 61.042 47.4993L52.7087 39.166C52.5003 39.166 52.292 39.3743 52.0837 39.3743V61.041C54.5837 61.8743 56.2503 64.166 56.2503 66.8743C56.2503 70.416 53.542 73.1243 50.0003 73.1243C46.4587 73.1243 43.7503 70.416 43.7503 66.8743C43.7503 64.166 45.417 61.8743 47.917 61.041V39.166C45.417 38.3327 43.7503 36.041 43.7503 33.3327C43.7503 32.291 43.9587 31.4577 44.3753 30.6243L35.8337 22.0827L12.0837 46.041C11.042 47.0827 10.417 48.541 10.417 49.9993C10.417 51.4577 11.042 52.916 12.0837 53.9577L46.042 87.916C47.0837 88.9577 48.542 89.5827 50.0003 89.5827C51.4587 89.5827 52.917 88.9577 53.9587 87.916L87.917 53.9577C88.9587 52.916 89.5837 51.4577 89.5837 49.9993C89.5837 48.541 88.9587 47.0827 87.917 46.041Z" fill="#F4511E"/>
</svg>
