<svg width="100" height="100" viewBox="0 0 100 100" fill="none" xmlns="http://www.w3.org/2000/svg">
<path d="M85.4163 10.416H14.583L20.833 81.2493L49.9997 89.5827L79.1663 81.2493L85.4163 10.416Z" fill="#E65100"/>
<path d="M50 16.666V83.1243L73.3333 76.4577L78.5417 16.666H50Z" fill="#FF6D00"/>
<path d="M50 52.084V43.7507H67.9167L66.4583 67.709L50 73.1256V64.3756L58.5417 61.459L59.1667 52.084H50ZM68.5417 35.4173L69.1667 27.084H50V35.4173H68.5417Z" fill="white"/>
<path d="M50.0003 64.3756V73.1256L33.542 67.709L32.7087 56.2506H41.042L41.4587 61.459L50.0003 64.3756ZM39.792 35.4173H50.0003V27.084H31.042L32.5003 52.084H50.0003V43.7507H40.417L39.792 35.4173Z" fill="#EEEEEE"/>
</svg>
