<svg width="100" height="100" viewBox="0 0 100 100" fill="none" xmlns="http://www.w3.org/2000/svg">
<g clip-path="url(#clip0_164_68)">
<path d="M29.7124 82.4345C28.7687 80.7845 28.7103 78.8095 29.4332 77.0824H9.92075L39.752 26.3928L49.4457 42.8658L54.2812 34.6512L45.202 19.2262C44.0541 17.2741 42.0187 16.1095 39.7541 16.1074C39.7541 16.1074 39.7541 16.1074 39.752 16.1074C37.4895 16.1074 35.452 17.272 34.302 19.2241L0.954079 75.8845C-0.193837 77.8345 -0.210504 80.2658 0.912413 82.2303C2.03533 84.1949 4.14158 85.4158 6.40408 85.4158H34.3999C32.4582 85.2241 30.6916 84.1491 29.7124 82.4345Z" fill="#1DE9B6"/>
<path d="M99.2708 76.3361L69.7458 26.1715C68.6417 24.2965 66.6854 23.1777 64.5104 23.1777C62.3354 23.1777 60.3771 24.2965 59.2729 26.1715L54.2812 34.6527L59.1167 42.8673L64.5104 33.7048L89.5833 77.084H79.1667C79.7042 78.7548 79.4812 80.6757 78.5917 82.2319C77.4687 84.1965 75.1792 85.4173 72.9167 85.4173C72.9187 85.4444 72.9146 85.3902 72.9167 85.4173H93.75C95.9229 85.4173 98.2271 84.3236 99.3062 82.4361C100.387 80.5506 100.373 78.2131 99.2708 76.3361Z" fill="#00BFA5"/>
<path d="M79.1668 77.0836C79.0251 76.6461 78.7876 76.2898 78.5501 75.8857L59.1168 42.8669L54.2814 34.6523L49.4459 42.8669L29.748 76.3357C29.6085 76.5711 29.5376 76.8336 29.4335 77.0836C28.7105 78.8107 28.7668 80.7878 29.7126 82.4357C30.6918 84.1482 32.4584 85.2232 34.4001 85.4169H73.1001C75.3626 85.4169 77.4668 84.1961 78.5897 82.2315C79.4814 80.6753 79.7043 78.7544 79.1668 77.0836ZM54.2814 51.0815L69.5855 77.0836H38.9793L54.2814 51.0815Z" fill="#00838F"/>
</g>
<defs>
<clipPath id="clip0_164_68">
<rect width="100" height="100" fill="white"/>
</clipPath>
</defs>
</svg>
