<svg width="100" height="100" viewBox="0 0 100 100" fill="none" xmlns="http://www.w3.org/2000/svg">
<path d="M49.9997 70.8327C23.1247 70.8327 2.08301 61.666 2.08301 49.9993C2.08301 38.3327 23.1247 29.166 49.9997 29.166C76.8747 29.166 97.9163 38.3327 97.9163 49.9993C97.9163 61.666 76.8747 70.8327 49.9997 70.8327ZM49.9997 33.3327C23.7497 33.3327 6.24967 41.8743 6.24967 49.9993C6.24967 58.1243 23.7497 66.666 49.9997 66.666C76.2497 66.666 93.7497 58.1243 93.7497 49.9993C93.7497 41.8743 76.2497 33.3327 49.9997 33.3327Z" fill="#61DBFB"/>
<path d="M31.4588 92.9158C29.3755 92.9158 27.7088 92.4991 26.0421 91.4574C15.8338 85.6241 18.5421 62.9158 31.8754 39.5824C38.1254 28.7491 45.8338 19.5824 53.3338 13.7491C61.4588 7.49911 68.7504 5.62411 73.7504 8.54077C78.9588 11.4574 80.8338 18.7491 79.5838 28.9574C78.3338 38.5408 74.1671 49.7908 67.9171 60.6241C61.6671 71.4574 53.9588 80.6241 46.4588 86.4574C41.0421 90.6241 35.8338 92.9158 31.4588 92.9158ZM68.5421 11.2491C65.2088 11.2491 60.8338 13.1241 56.0421 16.8741C48.9588 22.4991 41.6671 31.2491 35.6254 41.6658C22.5005 64.3741 21.2504 83.9574 28.1254 87.9158C31.6671 89.9991 37.5005 88.1241 43.9588 83.1241C51.0421 77.4991 58.3338 68.7491 64.3754 58.3324C70.4171 47.9158 74.3754 37.2908 75.6254 28.3324C76.6671 19.9991 75.4171 14.1658 71.8754 12.0824C70.8338 11.6658 69.7921 11.2491 68.5421 11.2491Z" fill="#61DBFB"/>
<path d="M68.7498 92.9163C58.3332 92.9163 43.3332 80.208 32.0832 60.4163C18.5415 37.083 15.8332 14.3747 26.0415 8.54132C36.2498 2.70799 54.5832 16.2497 68.1248 39.583C74.3748 50.4163 78.5415 61.6663 79.7915 71.2497C81.2498 81.458 79.1665 88.5413 73.9582 91.6663C72.2915 92.4997 70.6248 92.9163 68.7498 92.9163ZM28.1248 12.083C21.2498 16.0413 22.4998 35.6247 35.6248 58.333C48.7498 81.0413 64.9998 91.8747 71.8748 87.9163C75.4165 85.833 76.6665 79.9997 75.6248 71.6663C74.3748 62.708 70.4165 52.083 64.3748 41.6663C51.2498 18.958 34.9998 8.12466 28.1248 12.083Z" fill="#61DBFB"/>
<path d="M50.0003 58.3327C54.6027 58.3327 58.3337 54.6017 58.3337 49.9993C58.3337 45.397 54.6027 41.666 50.0003 41.666C45.398 41.666 41.667 45.397 41.667 49.9993C41.667 54.6017 45.398 58.3327 50.0003 58.3327Z" fill="#61DBFB"/>
</svg>
