<svg width="100" height="100" viewBox="0 0 100 100" fill="none" xmlns="http://www.w3.org/2000/svg">
<path d="M83.0559 54.0748C79.8517 54.0915 77.0767 54.8602 74.7517 56.0082C73.9017 54.3102 73.0392 52.8165 72.8955 51.7061C72.7267 50.4102 72.5309 49.6352 72.735 48.0915C72.9392 46.5477 73.8329 44.3602 73.8204 44.1957C73.8079 44.0311 73.6205 43.2457 71.7725 43.2311C69.9246 43.2186 68.3434 43.5873 68.158 44.0748C67.9725 44.5623 67.6163 45.6602 67.3955 46.8061C67.0725 48.4811 63.7059 54.4582 61.7955 57.5832C61.1705 56.3623 60.6392 55.2873 60.5288 54.4373C60.36 53.1415 60.1642 52.3665 60.3684 50.8227C60.5725 49.279 61.4663 47.0915 61.4538 46.9269C61.4413 46.7623 61.2538 45.9769 59.4059 45.9623C57.558 45.9498 55.9767 46.3186 55.7913 46.8061C55.6059 47.2936 55.4059 48.4332 55.0288 49.5373C54.6496 50.6394 50.1767 60.6082 49.0038 63.1936C48.4059 64.5102 47.8871 65.5686 47.5205 66.2894L47.5184 66.2852C47.5184 66.2852 47.4955 66.3332 47.458 66.4144C47.1434 67.029 46.958 67.3686 46.958 67.3686C46.958 67.3686 46.96 67.3727 46.9642 67.3811C46.7142 67.8332 46.4475 68.2519 46.3163 68.2519C46.2246 68.2519 46.0392 67.0498 46.3559 65.3998C47.0225 61.9415 48.6205 56.5498 48.6059 56.3623C48.5975 56.2665 48.9038 55.3269 47.5621 54.8352C46.258 54.3582 45.7934 55.154 45.6746 55.1561C45.56 55.1582 45.4746 55.4373 45.4746 55.4373C45.4746 55.4373 46.9267 49.3727 42.7038 49.3727C40.0621 49.3727 36.4038 52.2623 34.6017 54.8811C33.4642 55.5019 31.0288 56.8311 28.4475 58.2498C27.4559 58.7957 26.4434 59.3519 25.483 59.8811C25.4184 59.8082 25.3517 59.7373 25.285 59.6644C20.1621 54.1998 10.6955 50.3352 11.0955 42.9873C11.2413 40.3165 12.1705 33.2832 29.2892 24.754C43.3121 17.7665 54.5392 19.6894 56.4788 23.9498C59.2496 30.0394 50.4788 41.354 35.9163 42.9873C30.3684 43.6102 27.4455 41.4582 26.7184 40.6582C25.9538 39.8144 25.8392 39.7769 25.5538 39.9352C25.0892 40.1936 25.383 40.9373 25.5538 41.3811C25.9892 42.5123 27.7725 44.5186 30.8142 45.5186C33.4913 46.3977 40.0059 46.879 47.883 43.8311C56.708 40.4186 63.5975 30.9227 61.5725 22.9873C59.5142 14.9165 46.1309 12.2623 33.4642 16.7623C25.9163 19.4415 17.7559 23.6457 11.8871 29.1332C4.91004 35.6582 3.79754 41.3394 4.25587 43.7123C5.88504 52.1457 17.508 57.6373 22.1621 61.7061C21.933 61.8332 21.7163 61.9519 21.5205 62.0602C19.1871 63.2144 10.3267 67.8519 8.11004 72.7498C5.59546 78.3061 8.51004 82.2936 10.4392 82.8311C16.4163 84.4936 22.5496 81.5019 25.8475 76.5852C29.1434 71.6707 28.7413 65.2686 27.2288 62.3477C27.21 62.3123 27.1892 62.2769 27.1705 62.2394C27.7725 61.8832 28.3871 61.5207 28.9955 61.1623C30.183 60.4644 31.3496 59.8144 32.36 59.2644C31.7934 60.8144 31.3788 62.6748 31.1642 65.3602C30.91 68.5144 32.2038 72.5915 33.8955 74.1957C34.6413 74.9019 35.5371 74.9186 36.1038 74.9186C38.0725 74.9186 38.9705 73.2811 39.96 71.3436C41.1725 68.9686 42.2496 66.2019 42.2496 66.2019C42.2496 66.2019 40.8996 73.6727 44.5788 73.6727C45.9205 73.6727 47.2684 71.9332 47.8705 71.0477C47.8725 71.0582 47.8725 71.0623 47.8725 71.0623C47.8725 71.0623 47.908 71.004 47.9767 70.8894C48.1163 70.6769 48.1955 70.5415 48.1955 70.5415C48.1955 70.5415 48.1975 70.5269 48.2017 70.5019C48.7413 69.5665 49.9371 67.4332 51.7288 63.9144C54.0455 59.3686 56.2663 53.6727 56.2663 53.6727C56.2663 53.6727 56.4725 55.0644 57.1496 57.3686C57.5475 58.7227 58.3934 60.2207 59.0621 61.6582C58.5246 62.404 58.1955 62.8311 58.1955 62.8311C58.1955 62.8311 58.1975 62.8394 58.2038 62.854C57.7746 63.4248 57.2934 64.0394 56.7892 64.6394C54.96 66.8165 52.783 69.304 52.4913 70.0207C52.1475 70.8665 52.2288 71.4873 52.8934 71.9894C53.3788 72.354 54.2413 72.4123 55.1434 72.3519C56.7871 72.2415 57.9413 71.8332 58.5121 71.5852C59.4017 71.2707 60.4371 70.7769 61.408 70.0623C63.2017 68.7436 64.283 66.8582 64.1788 64.3582C64.1205 62.9811 63.683 61.6165 63.1267 60.329C63.2892 60.0957 63.4517 59.8582 63.6163 59.6207C66.4434 55.4873 68.6371 50.9457 68.6371 50.9457C68.6371 50.9457 68.8434 52.3373 69.5205 54.6415C69.8621 55.8061 70.5392 57.079 71.1475 58.3248C68.4892 60.4852 66.8413 62.9957 66.2684 64.6415C65.21 67.6873 66.0392 69.0665 67.5934 69.3811C68.2975 69.5227 69.2934 69.1998 70.0413 68.8832C70.9725 68.5748 72.0913 68.0602 73.1371 67.2915C74.9309 65.9727 76.6559 64.1269 76.5517 61.629C76.5038 60.4915 76.1955 59.3623 75.7767 58.279C78.0309 57.3394 80.9475 56.8186 84.6642 57.2519C92.6371 58.1832 94.1996 63.1602 93.9017 65.2436C93.6017 67.3269 91.9309 68.4727 91.3705 68.8186C90.8121 69.1644 90.6413 69.2852 90.6871 69.5415C90.7559 69.9144 91.0142 69.9019 91.4913 69.8207C92.1475 69.7102 95.6767 68.1269 95.8288 64.2811C96.0184 59.3936 91.3413 54.0311 83.0559 54.0748ZM21.6038 74.7915C18.9621 77.6727 15.2746 78.7602 13.6913 77.8436C11.983 76.854 12.66 72.6123 15.8996 69.554C17.8746 67.6915 20.4246 65.9748 22.1163 64.9186C22.5017 64.6873 23.0663 64.3477 23.7538 63.9352C23.8684 63.8707 23.933 63.8352 23.933 63.8352L23.9309 63.8311C24.0642 63.7519 24.1996 63.6707 24.3392 63.5852C25.5205 67.9373 24.3767 71.7686 21.6038 74.7915ZM40.8434 61.7144C39.9246 63.9561 37.9996 69.6936 36.8267 69.3852C35.8205 69.1207 35.208 64.7602 36.6267 60.4686C37.3392 58.3082 38.8642 55.7269 39.76 54.7248C41.2017 53.1123 42.7892 52.5852 43.1746 53.2394C43.6642 54.0727 41.4205 60.3082 40.8434 61.7144ZM56.7371 69.2977C56.3475 69.5019 55.9892 69.629 55.8246 69.5311C55.7017 69.4582 55.985 69.1894 55.985 69.1894C55.985 69.1894 57.9725 67.0498 58.7559 66.0769C59.2121 65.5102 59.7392 64.8373 60.3142 64.0873C60.3184 64.1623 60.3205 64.2373 60.3205 64.3102C60.3163 66.8727 57.8413 68.6019 56.7371 69.2977ZM68.9809 66.5061C68.6892 66.2998 68.7392 65.6311 69.6955 63.5457C70.0705 62.7269 70.9288 61.3498 72.4163 60.0332C72.5892 60.5748 72.6934 61.0936 72.6913 61.5769C72.6725 64.8019 70.3725 66.0061 68.9809 66.5061Z" fill="#F06292"/>
</svg>
