<svg width="100" height="100" viewBox="0 0 100 100" fill="none" xmlns="http://www.w3.org/2000/svg">
<path d="M50 20.0078C36.6667 20.0078 28.3333 26.6724 25 40.0016C30 33.337 35.8333 30.8391 42.5 32.5036C46.3042 33.4536 49.0229 36.2141 52.0333 39.2682C56.9333 44.2411 62.6062 49.9995 75 49.9995C88.3333 49.9995 96.6667 43.3349 100 30.0036C95 36.6682 89.1667 39.1682 82.5 37.5036C78.6979 36.5536 75.9792 33.7932 72.9688 30.7391C68.0667 25.7641 62.3917 20.0078 50 20.0078ZM25 49.9995C11.6667 49.9995 3.33333 56.6641 0 69.9953C5 63.3307 10.8333 60.8307 17.5 62.4974C21.3021 63.4495 24.0208 66.2078 27.0312 69.2599C31.9333 74.2349 37.6083 79.9932 50 79.9932C63.3333 79.9932 71.6667 73.3286 75 59.9974C70 66.662 64.1667 69.162 57.5 67.4953C53.6958 66.5453 50.9771 63.7849 47.9667 60.7328C43.0667 55.7578 37.3937 49.9995 25 49.9995Z" fill="#00ACC1"/>
</svg>
