<svg width="100" height="100" viewBox="0 0 100 100" fill="none" xmlns="http://www.w3.org/2000/svg">
<path d="M87.5 12.5H12.5V87.5H87.5V12.5Z" fill="#1976D2"/>
<path d="M57.2709 45.834H29.6396V52.634H39.5501V83.334H47.4021V52.634H57.2709V45.834Z" fill="white"/>
<path d="M81.6538 54.3421C81.6538 54.3421 77.9309 51.8587 73.7225 51.8587C69.5142 51.8587 67.9996 53.8587 67.9996 55.9962C67.9996 61.5129 83.3767 60.9608 83.3767 72.0629C83.3767 89.165 59.9309 81.5796 59.9309 81.5796V73.3754C59.9309 73.3754 64.4142 76.7546 69.7913 76.7546C75.1684 76.7546 74.9642 73.2379 74.9642 72.7546C74.9642 67.6525 59.7246 67.6525 59.7246 56.3421C59.7246 40.965 81.9288 47.0317 81.9288 47.0317L81.6538 54.3421Z" fill="white"/>
</svg>
