<svg width="100" height="100" viewBox="0 0 100 100" fill="none" xmlns="http://www.w3.org/2000/svg">
<path d="M93.4585 20.7835L52.1314 94.6835C51.2773 96.2085 49.0856 96.2189 48.2189 94.7001L6.07312 20.7897C5.12937 19.1356 6.54395 17.1314 8.41895 17.4668L49.7919 24.8626C50.0564 24.9106 50.3252 24.9085 50.5898 24.8606L91.096 17.4772C92.9648 17.1356 94.3856 19.1251 93.4585 20.7835Z" fill="#9575CD"/>
<path d="M69.9458 6.27154L39.6229 12.2132C39.125 12.3111 38.7562 12.734 38.725 13.2403L36.8604 44.7424C36.8166 45.484 37.4979 46.0611 38.2229 45.8924L46.6646 43.9445C47.4541 43.7632 48.1687 44.457 48.0062 45.2528L45.4979 57.534C45.3291 58.3611 46.1041 59.0674 46.9125 58.8215L52.1271 57.2382C52.9354 56.9924 53.7125 57.7007 53.5416 58.5299L49.5562 77.8215C49.3062 79.0278 50.9125 79.6861 51.5812 78.6507L52.0291 77.959L76.7375 28.6486C77.1521 27.8236 76.4375 26.882 75.5312 27.057L66.8416 28.734C66.025 28.8924 65.3312 28.132 65.5604 27.332L71.2312 7.66945C71.4604 6.87362 70.7646 6.11112 69.9458 6.27154Z" fill="#FBC02D"/>
</svg>
